<svg xmlns="http://www.w3.org/2000/svg" viewBox="0 0 1200 160" width="1200" height="160" shape-rendering="crispEdges">
  <title>Base16 Palette Stripes</title>
  <rect x="0.0000" y="0" width="75.0000" height="160" fill="#0c0d0e">
  </rect>
  <rect x="75.0000" y="0" width="75.0000" height="160" fill="#2e2f30">
  </rect>
  <rect x="150.0000" y="0" width="75.0000" height="160" fill="#515253">
  </rect>
  <rect x="225.0000" y="0" width="75.0000" height="160" fill="#737475">
  </rect>
  <rect x="300.0000" y="0" width="75.0000" height="160" fill="#959697">
  </rect>
  <rect x="375.0000" y="0" width="75.0000" height="160" fill="#b7b8b9">
  </rect>
  <rect x="450.0000" y="0" width="75.0000" height="160" fill="#dadbdc">
  </rect>
  <rect x="525.0000" y="0" width="75.0000" height="160" fill="#fcfdfe">
  </rect>
  <rect x="600.0000" y="0" width="75.0000" height="160" fill="#e31a1c">
  </rect>
  <rect x="675.0000" y="0" width="75.0000" height="160" fill="#e6550d">
  </rect>
  <rect x="750.0000" y="0" width="75.0000" height="160" fill="#dca060">
  </rect>
  <rect x="825.0000" y="0" width="75.0000" height="160" fill="#31a354">
  </rect>
  <rect x="900.0000" y="0" width="75.0000" height="160" fill="#80b1d3">
  </rect>
  <rect x="975.0000" y="0" width="75.0000" height="160" fill="#3182bd">
  </rect>
  <rect x="1050.0000" y="0" width="75.0000" height="160" fill="#756bb1">
  </rect>
  <rect x="1125.0000" y="0" width="75.0000" height="160" fill="#b15928">
  </rect>
</svg>