<svg xmlns="http://www.w3.org/2000/svg" viewBox="0 0 1200 160" width="1200" height="160" shape-rendering="crispEdges">
  <title>Base16 Palette Stripes</title>
  <rect x="0.0000" y="0" width="75.0000" height="160" fill="#2a3b4d">
  </rect>
  <rect x="75.0000" y="0" width="75.0000" height="160" fill="#3d566f">
  </rect>
  <rect x="150.0000" y="0" width="75.0000" height="160" fill="#4b6988">
  </rect>
  <rect x="225.0000" y="0" width="75.0000" height="160" fill="#55799c">
  </rect>
  <rect x="300.0000" y="0" width="75.0000" height="160" fill="#7e90a3">
  </rect>
  <rect x="375.0000" y="0" width="75.0000" height="160" fill="#9fa2a6">
  </rect>
  <rect x="450.0000" y="0" width="75.0000" height="160" fill="#d6d7d9">
  </rect>
  <rect x="525.0000" y="0" width="75.0000" height="160" fill="#ffffff">
  </rect>
  <rect x="600.0000" y="0" width="75.0000" height="160" fill="#c4676c">
  </rect>
  <rect x="675.0000" y="0" width="75.0000" height="160" fill="#ff9966">
  </rect>
  <rect x="750.0000" y="0" width="75.0000" height="160" fill="#ffff66">
  </rect>
  <rect x="825.0000" y="0" width="75.0000" height="160" fill="#66ff66">
  </rect>
  <rect x="900.0000" y="0" width="75.0000" height="160" fill="#4b8f77">
  </rect>
  <rect x="975.0000" y="0" width="75.0000" height="160" fill="#15f4ee">
  </rect>
  <rect x="1050.0000" y="0" width="75.0000" height="160" fill="#9c6cd3">
  </rect>
  <rect x="1125.0000" y="0" width="75.0000" height="160" fill="#bb64a9">
  </rect>
</svg>