<svg xmlns="http://www.w3.org/2000/svg" viewBox="0 0 1200 160" width="1200" height="160" shape-rendering="crispEdges">
  <title>Base16 Palette Stripes</title>
  <rect x="0.0000" y="0" width="75.0000" height="160" fill="#2d353b">
  </rect>
  <rect x="75.0000" y="0" width="75.0000" height="160" fill="#343f44">
  </rect>
  <rect x="150.0000" y="0" width="75.0000" height="160" fill="#475258">
  </rect>
  <rect x="225.0000" y="0" width="75.0000" height="160" fill="#859289">
  </rect>
  <rect x="300.0000" y="0" width="75.0000" height="160" fill="#9da9a0">
  </rect>
  <rect x="375.0000" y="0" width="75.0000" height="160" fill="#d3c6aa">
  </rect>
  <rect x="450.0000" y="0" width="75.0000" height="160" fill="#e6e2cc">
  </rect>
  <rect x="525.0000" y="0" width="75.0000" height="160" fill="#fdf6e3">
  </rect>
  <rect x="600.0000" y="0" width="75.0000" height="160" fill="#e67e80">
  </rect>
  <rect x="675.0000" y="0" width="75.0000" height="160" fill="#e69875">
  </rect>
  <rect x="750.0000" y="0" width="75.0000" height="160" fill="#dbbc7f">
  </rect>
  <rect x="825.0000" y="0" width="75.0000" height="160" fill="#a7c080">
  </rect>
  <rect x="900.0000" y="0" width="75.0000" height="160" fill="#83c092">
  </rect>
  <rect x="975.0000" y="0" width="75.0000" height="160" fill="#7fbbb3">
  </rect>
  <rect x="1050.0000" y="0" width="75.0000" height="160" fill="#d699b6">
  </rect>
  <rect x="1125.0000" y="0" width="75.0000" height="160" fill="#9da9a0">
  </rect>
</svg>