<svg xmlns="http://www.w3.org/2000/svg" viewBox="0 0 1200 160" width="1200" height="160" shape-rendering="crispEdges">
  <title>Base16 Palette Stripes</title>
  <rect x="0.0000" y="0" width="75.0000" height="160" fill="#0c1014">
  </rect>
  <rect x="75.0000" y="0" width="75.0000" height="160" fill="#11151c">
  </rect>
  <rect x="150.0000" y="0" width="75.0000" height="160" fill="#091f2e">
  </rect>
  <rect x="225.0000" y="0" width="75.0000" height="160" fill="#0a3749">
  </rect>
  <rect x="300.0000" y="0" width="75.0000" height="160" fill="#245361">
  </rect>
  <rect x="375.0000" y="0" width="75.0000" height="160" fill="#599cab">
  </rect>
  <rect x="450.0000" y="0" width="75.0000" height="160" fill="#99d1ce">
  </rect>
  <rect x="525.0000" y="0" width="75.0000" height="160" fill="#d3ebe9">
  </rect>
  <rect x="600.0000" y="0" width="75.0000" height="160" fill="#c23127">
  </rect>
  <rect x="675.0000" y="0" width="75.0000" height="160" fill="#d26937">
  </rect>
  <rect x="750.0000" y="0" width="75.0000" height="160" fill="#edb443">
  </rect>
  <rect x="825.0000" y="0" width="75.0000" height="160" fill="#33859E">
  </rect>
  <rect x="900.0000" y="0" width="75.0000" height="160" fill="#2aa889">
  </rect>
  <rect x="975.0000" y="0" width="75.0000" height="160" fill="#195466">
  </rect>
  <rect x="1050.0000" y="0" width="75.0000" height="160" fill="#888ca6">
  </rect>
  <rect x="1125.0000" y="0" width="75.0000" height="160" fill="#4e5166">
  </rect>
</svg>