<svg xmlns="http://www.w3.org/2000/svg" viewBox="0 0 1200 160" width="1200" height="160" shape-rendering="crispEdges">
  <title>Base16 Palette Stripes</title>
  <rect x="0.0000" y="0" width="75.0000" height="160" fill="#061229">
  </rect>
  <rect x="75.0000" y="0" width="75.0000" height="160" fill="#2a3448">
  </rect>
  <rect x="150.0000" y="0" width="75.0000" height="160" fill="#4d5666">
  </rect>
  <rect x="225.0000" y="0" width="75.0000" height="160" fill="#717885">
  </rect>
  <rect x="300.0000" y="0" width="75.0000" height="160" fill="#9a99a3">
  </rect>
  <rect x="375.0000" y="0" width="75.0000" height="160" fill="#b8bbc2">
  </rect>
  <rect x="450.0000" y="0" width="75.0000" height="160" fill="#dbdde0">
  </rect>
  <rect x="525.0000" y="0" width="75.0000" height="160" fill="#ffffff">
  </rect>
  <rect x="600.0000" y="0" width="75.0000" height="160" fill="#d07346">
  </rect>
  <rect x="675.0000" y="0" width="75.0000" height="160" fill="#f0a000">
  </rect>
  <rect x="750.0000" y="0" width="75.0000" height="160" fill="#fbd461">
  </rect>
  <rect x="825.0000" y="0" width="75.0000" height="160" fill="#99bf52">
  </rect>
  <rect x="900.0000" y="0" width="75.0000" height="160" fill="#72b9bf">
  </rect>
  <rect x="975.0000" y="0" width="75.0000" height="160" fill="#5299bf">
  </rect>
  <rect x="1050.0000" y="0" width="75.0000" height="160" fill="#9989cc">
  </rect>
  <rect x="1125.0000" y="0" width="75.0000" height="160" fill="#b08060">
  </rect>
</svg>