<svg xmlns="http://www.w3.org/2000/svg" viewBox="0 0 1200 160" width="1200" height="160" shape-rendering="crispEdges">
  <title>Base16 Palette Stripes</title>
  <rect x="0.0000" y="0" width="75.0000" height="160" fill="#002b36">
  </rect>
  <rect x="75.0000" y="0" width="75.0000" height="160" fill="#073642">
  </rect>
  <rect x="150.0000" y="0" width="75.0000" height="160" fill="#586e75">
  </rect>
  <rect x="225.0000" y="0" width="75.0000" height="160" fill="#657b83">
  </rect>
  <rect x="300.0000" y="0" width="75.0000" height="160" fill="#839496">
  </rect>
  <rect x="375.0000" y="0" width="75.0000" height="160" fill="#93a1a1">
  </rect>
  <rect x="450.0000" y="0" width="75.0000" height="160" fill="#eee8d5">
  </rect>
  <rect x="525.0000" y="0" width="75.0000" height="160" fill="#fdf6e3">
  </rect>
  <rect x="600.0000" y="0" width="75.0000" height="160" fill="#dc322f">
  </rect>
  <rect x="675.0000" y="0" width="75.0000" height="160" fill="#cb4b16">
  </rect>
  <rect x="750.0000" y="0" width="75.0000" height="160" fill="#b58900">
  </rect>
  <rect x="825.0000" y="0" width="75.0000" height="160" fill="#859900">
  </rect>
  <rect x="900.0000" y="0" width="75.0000" height="160" fill="#2aa198">
  </rect>
  <rect x="975.0000" y="0" width="75.0000" height="160" fill="#268bd2">
  </rect>
  <rect x="1050.0000" y="0" width="75.0000" height="160" fill="#6c71c4">
  </rect>
  <rect x="1125.0000" y="0" width="75.0000" height="160" fill="#d33682">
  </rect>
</svg>