<svg xmlns="http://www.w3.org/2000/svg" viewBox="0 0 1200 160" width="1200" height="160" shape-rendering="crispEdges">
  <title>Base16 Palette Stripes</title>
  <rect x="0.0000" y="0" width="75.0000" height="160" fill="#f8f9fa">
  </rect>
  <rect x="75.0000" y="0" width="75.0000" height="160" fill="#edeff1">
  </rect>
  <rect x="150.0000" y="0" width="75.0000" height="160" fill="#d2d4d8">
  </rect>
  <rect x="225.0000" y="0" width="75.0000" height="160" fill="#a0a6ac">
  </rect>
  <rect x="300.0000" y="0" width="75.0000" height="160" fill="#8A9199">
  </rect>
  <rect x="375.0000" y="0" width="75.0000" height="160" fill="#5c6166">
  </rect>
  <rect x="450.0000" y="0" width="75.0000" height="160" fill="#4e5257">
  </rect>
  <rect x="525.0000" y="0" width="75.0000" height="160" fill="#404447">
  </rect>
  <rect x="600.0000" y="0" width="75.0000" height="160" fill="#f07171">
  </rect>
  <rect x="675.0000" y="0" width="75.0000" height="160" fill="#fa8d3e">
  </rect>
  <rect x="750.0000" y="0" width="75.0000" height="160" fill="#f2ae49">
  </rect>
  <rect x="825.0000" y="0" width="75.0000" height="160" fill="#6cbf49">
  </rect>
  <rect x="900.0000" y="0" width="75.0000" height="160" fill="#4cbf99">
  </rect>
  <rect x="975.0000" y="0" width="75.0000" height="160" fill="#399ee6">
  </rect>
  <rect x="1050.0000" y="0" width="75.0000" height="160" fill="#a37acc">
  </rect>
  <rect x="1125.0000" y="0" width="75.0000" height="160" fill="#e6ba7e">
  </rect>
</svg>