<svg xmlns="http://www.w3.org/2000/svg" viewBox="0 0 1200 160" width="1200" height="160" shape-rendering="crispEdges">
  <title>Base16 Palette Stripes</title>
  <rect x="0.0000" y="0" width="75.0000" height="160" fill="#E3EFEF">
  </rect>
  <rect x="75.0000" y="0" width="75.0000" height="160" fill="#C9DBDC">
  </rect>
  <rect x="150.0000" y="0" width="75.0000" height="160" fill="#B0C5C8">
  </rect>
  <rect x="225.0000" y="0" width="75.0000" height="160" fill="#98AFB5">
  </rect>
  <rect x="300.0000" y="0" width="75.0000" height="160" fill="#8299A1">
  </rect>
  <rect x="375.0000" y="0" width="75.0000" height="160" fill="#6D828E">
  </rect>
  <rect x="450.0000" y="0" width="75.0000" height="160" fill="#5A6D7A">
  </rect>
  <rect x="525.0000" y="0" width="75.0000" height="160" fill="#485867">
  </rect>
  <rect x="600.0000" y="0" width="75.0000" height="160" fill="#b38686">
  </rect>
  <rect x="675.0000" y="0" width="75.0000" height="160" fill="#d8bba2">
  </rect>
  <rect x="750.0000" y="0" width="75.0000" height="160" fill="#aab386">
  </rect>
  <rect x="825.0000" y="0" width="75.0000" height="160" fill="#87b386">
  </rect>
  <rect x="900.0000" y="0" width="75.0000" height="160" fill="#86b3b3">
  </rect>
  <rect x="975.0000" y="0" width="75.0000" height="160" fill="#868cb3">
  </rect>
  <rect x="1050.0000" y="0" width="75.0000" height="160" fill="#b386b2">
  </rect>
  <rect x="1125.0000" y="0" width="75.0000" height="160" fill="#b39f9f">
  </rect>
</svg>