<svg xmlns="http://www.w3.org/2000/svg" viewBox="0 0 1200 160" width="1200" height="160" shape-rendering="crispEdges">
  <title>Base16 Palette Stripes</title>
  <rect x="0.0000" y="0" width="75.0000" height="160" fill="#eff1f5">
  </rect>
  <rect x="75.0000" y="0" width="75.0000" height="160" fill="#e6e9ef">
  </rect>
  <rect x="150.0000" y="0" width="75.0000" height="160" fill="#ccd0da">
  </rect>
  <rect x="225.0000" y="0" width="75.0000" height="160" fill="#bcc0cc">
  </rect>
  <rect x="300.0000" y="0" width="75.0000" height="160" fill="#acb0be">
  </rect>
  <rect x="375.0000" y="0" width="75.0000" height="160" fill="#4c4f69">
  </rect>
  <rect x="450.0000" y="0" width="75.0000" height="160" fill="#dc8a78">
  </rect>
  <rect x="525.0000" y="0" width="75.0000" height="160" fill="#7287fd">
  </rect>
  <rect x="600.0000" y="0" width="75.0000" height="160" fill="#d20f39">
  </rect>
  <rect x="675.0000" y="0" width="75.0000" height="160" fill="#fe640b">
  </rect>
  <rect x="750.0000" y="0" width="75.0000" height="160" fill="#df8e1d">
  </rect>
  <rect x="825.0000" y="0" width="75.0000" height="160" fill="#40a02b">
  </rect>
  <rect x="900.0000" y="0" width="75.0000" height="160" fill="#179299">
  </rect>
  <rect x="975.0000" y="0" width="75.0000" height="160" fill="#1e66f5">
  </rect>
  <rect x="1050.0000" y="0" width="75.0000" height="160" fill="#8839ef">
  </rect>
  <rect x="1125.0000" y="0" width="75.0000" height="160" fill="#dd7878">
  </rect>
</svg>