<svg xmlns="http://www.w3.org/2000/svg" viewBox="0 0 1200 160" width="1200" height="160" shape-rendering="crispEdges">
  <title>Base16 Palette Stripes</title>
  <rect x="0.0000" y="0" width="75.0000" height="160" fill="#e8f0ea">
  </rect>
  <rect x="75.0000" y="0" width="75.0000" height="160" fill="#d1e0d7">
  </rect>
  <rect x="150.0000" y="0" width="75.0000" height="160" fill="#b9d0c3">
  </rect>
  <rect x="225.0000" y="0" width="75.0000" height="160" fill="#8a9a91">
  </rect>
  <rect x="300.0000" y="0" width="75.0000" height="160" fill="#4b5a51">
  </rect>
  <rect x="375.0000" y="0" width="75.0000" height="160" fill="#364c40">
  </rect>
  <rect x="450.0000" y="0" width="75.0000" height="160" fill="#2a3b32">
  </rect>
  <rect x="525.0000" y="0" width="75.0000" height="160" fill="#1e2a24">
  </rect>
  <rect x="600.0000" y="0" width="75.0000" height="160" fill="#c60c30">
  </rect>
  <rect x="675.0000" y="0" width="75.0000" height="160" fill="#f9461c">
  </rect>
  <rect x="750.0000" y="0" width="75.0000" height="160" fill="#968400">
  </rect>
  <rect x="825.0000" y="0" width="75.0000" height="160" fill="#009b3a">
  </rect>
  <rect x="900.0000" y="0" width="75.0000" height="160" fill="#00a1de">
  </rect>
  <rect x="975.0000" y="0" width="75.0000" height="160" fill="#522398">
  </rect>
  <rect x="1050.0000" y="0" width="75.0000" height="160" fill="#e27ea6">
  </rect>
  <rect x="1125.0000" y="0" width="75.0000" height="160" fill="#62361b">
  </rect>
</svg>