<svg xmlns="http://www.w3.org/2000/svg" viewBox="0 0 1200 160" width="1200" height="160" shape-rendering="crispEdges">
  <title>Base16 Palette Stripes</title>
  <rect x="0.0000" y="0" width="75.0000" height="160" fill="#ffffff">
  </rect>
  <rect x="75.0000" y="0" width="75.0000" height="160" fill="#ebebeb">
  </rect>
  <rect x="150.0000" y="0" width="75.0000" height="160" fill="#cdcdcd">
  </rect>
  <rect x="225.0000" y="0" width="75.0000" height="160" fill="#878787">
  </rect>
  <rect x="300.0000" y="0" width="75.0000" height="160" fill="#878787">
  </rect>
  <rect x="375.0000" y="0" width="75.0000" height="160" fill="#474747">
  </rect>
  <rect x="450.0000" y="0" width="75.0000" height="160" fill="#282828">
  </rect>
  <rect x="525.0000" y="0" width="75.0000" height="160" fill="#282828">
  </rect>
  <rect x="600.0000" y="0" width="75.0000" height="160" fill="#bf0000">
  </rect>
  <rect x="675.0000" y="0" width="75.0000" height="160" fill="#ba3700">
  </rect>
  <rect x="750.0000" y="0" width="75.0000" height="160" fill="#af8500">
  </rect>
  <rect x="825.0000" y="0" width="75.0000" height="160" fill="#008400">
  </rect>
  <rect x="900.0000" y="0" width="75.0000" height="160" fill="#009a8a">
  </rect>
  <rect x="975.0000" y="0" width="75.0000" height="160" fill="#0054cf">
  </rect>
  <rect x="1050.0000" y="0" width="75.0000" height="160" fill="#6b40c3">
  </rect>
  <rect x="1125.0000" y="0" width="75.0000" height="160" fill="#dd0f9d">
  </rect>
</svg>